<svg width="200" height="200" viewBox="0 0 200 200" fill="none" xmlns="http://www.w3.org/2000/svg">
<rect width="200" height="200" fill="white"/>
<g filter="url(#filter0_ii_945_668)">
<path d="M127.709 96.946C133.828 62.4733 116.148 37.3475 104.894 27.523C104.224 26.9379 103.115 27.5066 103.01 28.39C102.252 34.7662 96.5939 47.7999 79.1248 65.2767C69.2032 75.2028 58.2069 84.5431 51.8301 97.0452C30.1438 139.562 64.9675 164.457 88.4761 173.179C89.3178 173.492 90.0842 172.596 89.7008 171.785C78.496 148.062 89.7665 137.453 101.095 126.339C101.761 125.685 102.911 126.218 102.878 127.15C102.191 146.579 112.319 164.572 123.063 170.68C123.366 170.852 123.744 170.835 124.043 170.657C168.271 144.294 156.253 99.9441 141.938 80.5426C141.523 79.9802 140.683 80.0414 140.321 80.6395C133.649 91.6744 131.329 96.2691 128.836 97.8731C128.227 98.2654 127.583 97.6597 127.709 96.946Z" fill="url(#paint0_linear_945_668)"/>
</g>
<defs>
<filter id="filter0_ii_945_668" x="45" y="23.2847" width="110" height="153.958" filterUnits="userSpaceOnUse" color-interpolation-filters="sRGB">
<feFlood flood-opacity="0" result="BackgroundImageFix"/>
<feBlend mode="normal" in="SourceGraphic" in2="BackgroundImageFix" result="shape"/>
<feColorMatrix in="SourceAlpha" type="matrix" values="0 0 0 0 0 0 0 0 0 0 0 0 0 0 0 0 0 0 127 0" result="hardAlpha"/>
<feOffset dy="4"/>
<feGaussianBlur stdDeviation="2"/>
<feComposite in2="hardAlpha" operator="arithmetic" k2="-1" k3="1"/>
<feColorMatrix type="matrix" values="0 0 0 0 0.991667 0 0 0 0 0.570208 0 0 0 0 0.570208 0 0 0 0.25 0"/>
<feBlend mode="normal" in2="shape" result="effect1_innerShadow_945_668"/>
<feColorMatrix in="SourceAlpha" type="matrix" values="0 0 0 0 0 0 0 0 0 0 0 0 0 0 0 0 0 0 127 0" result="hardAlpha"/>
<feOffset dy="-4"/>
<feGaussianBlur stdDeviation="2"/>
<feComposite in2="hardAlpha" operator="arithmetic" k2="-1" k3="1"/>
<feColorMatrix type="matrix" values="0 0 0 0 1 0 0 0 0 0.805 0 0 0 0 0.625 0 0 0 0.25 0"/>
<feBlend mode="normal" in2="effect1_innerShadow_945_668" result="effect2_innerShadow_945_668"/>
</filter>
<linearGradient id="paint0_linear_945_668" x1="100.697" y1="71.0103" x2="99.998" y2="174" gradientUnits="userSpaceOnUse">
<stop stop-color="#FDC557"/>
<stop offset="0.817708" stop-color="#FF7A00"/>
</linearGradient>
</defs>
</svg>
