<svg width="260" height="260" viewBox="0 0 260 260" fill="none" xmlns="http://www.w3.org/2000/svg">
<path d="M47.0607 10.9393C46.4749 10.3536 45.5251 10.3536 44.9393 10.9393L35.3934 20.4853C34.8076 21.0711 34.8076 22.0208 35.3934 22.6066C35.9792 23.1924 36.9289 23.1924 37.5147 22.6066L46 14.1213L54.4853 22.6066C55.0711 23.1924 56.0208 23.1924 56.6066 22.6066C57.1924 22.0208 57.1924 21.0711 56.6066 20.4853L47.0607 10.9393ZM47.5 212L47.5 12H44.5L44.5 212H47.5Z" fill="black"/>
<path d="M247.061 213.061C247.646 212.475 247.646 211.525 247.061 210.939L237.515 201.393C236.929 200.808 235.979 200.808 235.393 201.393C234.808 201.979 234.808 202.929 235.393 203.515L243.879 212L235.393 220.485C234.808 221.071 234.808 222.021 235.393 222.607C235.979 223.192 236.929 223.192 237.515 222.607L247.061 213.061ZM46 213.5H246V210.5H46V213.5Z" fill="black"/>
<path d="M46.8608 230.273H48.7955L51.3864 236.597H51.4886L54.0795 230.273H56.0142V239H54.4972V233.004H54.4162L52.0043 238.974H50.8707L48.4588 232.991H48.3778V239H46.8608V230.273ZM59.5511 239.132C59.1364 239.132 58.7628 239.058 58.4304 238.911C58.1009 238.76 57.8395 238.538 57.6463 238.246C57.456 237.953 57.3608 237.592 57.3608 237.163C57.3608 236.794 57.429 236.489 57.5653 236.247C57.7017 236.006 57.8878 235.812 58.1236 235.668C58.3594 235.523 58.625 235.413 58.9205 235.339C59.2188 235.263 59.527 235.207 59.8452 235.173C60.2287 235.134 60.5398 235.098 60.7784 235.067C61.017 235.033 61.1903 234.982 61.2983 234.913C61.4091 234.842 61.4645 234.733 61.4645 234.585V234.56C61.4645 234.239 61.3693 233.99 61.179 233.814C60.9886 233.638 60.7145 233.55 60.3565 233.55C59.9787 233.55 59.679 233.632 59.4574 233.797C59.2386 233.962 59.0909 234.156 59.0142 234.381L57.5739 234.176C57.6875 233.778 57.875 233.446 58.1364 233.179C58.3977 232.909 58.7173 232.707 59.0952 232.574C59.473 232.438 59.8906 232.369 60.348 232.369C60.6634 232.369 60.9773 232.406 61.2898 232.48C61.6023 232.554 61.8878 232.676 62.1463 232.847C62.4048 233.014 62.6122 233.243 62.7685 233.533C62.9276 233.822 63.0071 234.185 63.0071 234.619V239H61.5241V238.101H61.473C61.3793 238.283 61.2472 238.453 61.0767 238.612C60.9091 238.768 60.6974 238.895 60.4418 238.991C60.1889 239.085 59.892 239.132 59.5511 239.132ZM59.9517 237.999C60.2614 237.999 60.5298 237.937 60.7571 237.815C60.9844 237.69 61.1591 237.526 61.2812 237.321C61.4062 237.116 61.4688 236.893 61.4688 236.652V235.881C61.4205 235.92 61.3381 235.957 61.2216 235.991C61.108 236.026 60.9801 236.055 60.8381 236.081C60.696 236.107 60.5554 236.129 60.4162 236.149C60.277 236.169 60.1563 236.186 60.054 236.2C59.8239 236.232 59.6179 236.283 59.4361 236.354C59.2543 236.425 59.1108 236.524 59.0057 236.652C58.9006 236.777 58.848 236.939 58.848 237.138C58.848 237.422 58.9517 237.636 59.1591 237.781C59.3665 237.926 59.6307 237.999 59.9517 237.999ZM67.8267 232.455V233.648H64.0639V232.455H67.8267ZM64.9929 230.886H66.5355V237.031C66.5355 237.239 66.5668 237.398 66.6293 237.509C66.6946 237.616 66.7798 237.69 66.8849 237.73C66.9901 237.77 67.1065 237.79 67.2344 237.79C67.331 237.79 67.419 237.783 67.4986 237.768C67.581 237.754 67.6435 237.741 67.6861 237.73L67.946 238.936C67.8636 238.964 67.7457 238.996 67.5923 239.03C67.4418 239.064 67.2571 239.084 67.0384 239.089C66.652 239.101 66.304 239.043 65.9943 238.915C65.6847 238.784 65.4389 238.582 65.2571 238.31C65.0781 238.037 64.9901 237.696 64.9929 237.287V230.886ZM73.2887 236.247V232.455H74.8313V239H73.3356V237.837H73.2674C73.1197 238.203 72.8768 238.503 72.5387 238.736C72.2035 238.969 71.7901 239.085 71.2987 239.085C70.8697 239.085 70.4904 238.99 70.1609 238.8C69.8342 238.607 69.5785 238.327 69.3938 237.96C69.2092 237.591 69.1168 237.145 69.1168 236.622V232.455H70.6594V236.384C70.6594 236.798 70.7731 237.128 71.0004 237.372C71.2276 237.616 71.5259 237.739 71.8952 237.739C72.1225 237.739 72.3427 237.683 72.5558 237.572C72.7688 237.462 72.9435 237.297 73.0799 237.078C73.2191 236.857 73.2887 236.58 73.2887 236.247ZM76.4176 239V232.455H77.9134V233.545H77.9815C78.1009 233.168 78.3054 232.876 78.5952 232.672C78.8878 232.464 79.2216 232.361 79.5966 232.361C79.6818 232.361 79.777 232.365 79.8821 232.374C79.9901 232.379 80.0795 232.389 80.1506 232.403V233.822C80.0852 233.8 79.9815 233.78 79.8395 233.763C79.7003 233.743 79.5653 233.733 79.4347 233.733C79.1534 233.733 78.9006 233.794 78.6761 233.916C78.4545 234.036 78.2798 234.202 78.152 234.415C78.0241 234.628 77.9602 234.874 77.9602 235.152V239H76.4176ZM81.1754 239V232.455H82.718V239H81.1754ZM81.951 231.526C81.7067 231.526 81.4964 231.445 81.3203 231.283C81.1442 231.118 81.0561 230.92 81.0561 230.69C81.0561 230.457 81.1442 230.26 81.3203 230.098C81.4964 229.933 81.7067 229.851 81.951 229.851C82.1982 229.851 82.4084 229.933 82.5817 230.098C82.7578 230.26 82.8459 230.457 82.8459 230.69C82.8459 230.92 82.7578 231.118 82.5817 231.283C82.4084 231.445 82.1982 231.526 81.951 231.526ZM87.5728 232.455V233.648H83.81V232.455H87.5728ZM84.739 230.886H86.2816V237.031C86.2816 237.239 86.3129 237.398 86.3754 237.509C86.4407 237.616 86.5259 237.69 86.631 237.73C86.7362 237.77 86.8526 237.79 86.9805 237.79C87.0771 237.79 87.1651 237.783 87.2447 237.768C87.3271 237.754 87.3896 237.741 87.4322 237.73L87.6921 238.936C87.6097 238.964 87.4918 238.996 87.3384 239.03C87.1879 239.064 87.0032 239.084 86.7844 239.089C86.3981 239.101 86.0501 239.043 85.7404 238.915C85.4308 238.784 85.185 238.582 85.0032 238.31C84.8242 238.037 84.7362 237.696 84.739 237.287V230.886ZM89.8217 241.455C89.6115 241.455 89.4169 241.438 89.2379 241.403C89.0618 241.372 88.9212 241.335 88.8161 241.293L89.174 240.091C89.3984 240.156 89.5987 240.188 89.7749 240.185C89.951 240.182 90.1058 240.126 90.2393 240.018C90.3757 239.913 90.4908 239.737 90.5845 239.49L90.7166 239.136L88.343 232.455H89.9794L91.4879 237.398H91.5561L93.0689 232.455H94.7095L92.0888 239.793C91.9666 240.139 91.8047 240.436 91.603 240.683C91.4013 240.933 91.1541 241.124 90.8615 241.254C90.5717 241.388 90.2251 241.455 89.8217 241.455Z" fill="#000938"/>
<path d="M25.5156 210.148L25.5229 211.835L16.7824 208.801L16.7739 206.849L25.4878 203.735L25.4951 205.422L18.5678 207.783L18.5681 207.851L25.5156 210.148ZM22.0935 210.107L22.0736 205.505L23.3434 205.5L23.3634 210.102L22.0935 210.107ZM25.4831 202.653L18.9377 202.682L18.9313 201.207L20.0436 201.202L20.0432 201.126C19.6676 200.991 19.374 200.766 19.1625 200.452C18.948 200.138 18.8399 199.762 18.838 199.324C18.836 198.881 18.9424 198.507 19.157 198.202C19.3687 197.894 19.659 197.677 20.0277 197.55L20.0274 197.482C19.6632 197.339 19.3724 197.096 19.155 196.753C18.9347 196.407 18.8236 195.997 18.8215 195.523C18.8189 194.921 19.0071 194.428 19.3861 194.046C19.7652 193.664 20.3197 193.471 21.0498 193.468L25.4433 193.449L25.45 194.996L21.2952 195.014C20.8889 195.015 20.5925 195.125 20.406 195.341C20.2166 195.558 20.1225 195.823 20.1239 196.135C20.1255 196.507 20.2432 196.798 20.4771 197.007C20.7081 197.214 21.0083 197.316 21.3776 197.315L25.4599 197.297L25.4665 198.81L21.2478 198.828C20.9097 198.829 20.6403 198.933 20.4394 199.138C20.2386 199.341 20.1389 199.605 20.1403 199.932C20.1413 200.154 20.199 200.355 20.3134 200.536C20.425 200.718 20.5833 200.862 20.7883 200.969C20.9905 201.076 21.2265 201.129 21.4964 201.128L25.4764 201.111L25.4831 202.653ZM25.552 189.028C25.5547 189.667 25.4165 190.222 25.1373 190.692C24.8581 191.162 24.4662 191.527 23.9616 191.788C23.4571 192.046 22.8667 192.176 22.1906 192.179C21.5145 192.182 20.9216 192.057 20.412 191.803C19.9023 191.547 19.5059 191.185 19.2226 190.718C18.9393 190.25 18.7963 189.697 18.7935 189.058C18.7908 188.418 18.929 187.864 19.2082 187.394C19.4874 186.924 19.8807 186.56 20.3881 186.302C20.8955 186.041 21.4873 185.909 22.1634 185.907C22.8396 185.904 23.431 186.03 23.9378 186.287C24.4446 186.54 24.8396 186.901 25.1229 187.368C25.4062 187.836 25.5492 188.389 25.552 189.028ZM24.3162 189.025C24.3147 188.678 24.2182 188.389 24.0269 188.157C23.8327 187.925 23.5734 187.753 23.2491 187.64C22.9247 187.525 22.5637 187.469 22.1659 187.47C21.7654 187.472 21.4034 187.532 21.0801 187.65C20.7538 187.765 20.4947 187.939 20.3025 188.173C20.1103 188.407 20.015 188.697 20.0165 189.044C20.018 189.399 20.1159 189.694 20.3101 189.929C20.5043 190.161 20.765 190.335 21.0922 190.45C21.4165 190.562 21.779 190.617 22.1796 190.615C22.5773 190.614 22.9378 190.555 23.2612 190.44C23.5845 190.322 23.8423 190.146 24.0345 189.913C24.2238 189.676 24.3177 189.38 24.3162 189.025ZM22.634 180.423L18.8414 180.44L18.8348 178.897L25.3802 178.869L25.3866 180.364L24.2233 180.37L24.2236 180.438C24.5907 180.584 24.8915 180.825 25.1259 181.162C25.3603 181.497 25.4785 181.91 25.4807 182.401C25.4825 182.83 25.389 183.21 25.2001 183.54C25.0083 183.868 24.7296 184.124 24.3639 184.311C23.9954 184.497 23.5498 184.591 23.0271 184.593L18.8595 184.612L18.8528 183.069L22.7818 183.052C23.1965 183.05 23.5256 182.935 23.7689 182.707C24.0122 182.478 24.1331 182.18 24.1315 181.81C24.1305 181.583 24.0742 181.363 23.9625 181.15C23.8507 180.938 23.6852 180.764 23.4659 180.628C23.2437 180.49 22.9664 180.422 22.634 180.423ZM21.5314 175.756L25.3666 175.74L25.3733 177.282L18.8279 177.311L18.8215 175.836L19.9337 175.832L19.9334 175.755C19.5663 175.606 19.274 175.367 19.0567 175.038C18.8393 174.707 18.7296 174.297 18.7275 173.808C18.7255 173.357 18.8204 172.963 19.0122 172.627C19.2039 172.288 19.4826 172.025 19.8482 171.839C20.2139 171.65 20.6581 171.556 21.1808 171.556L25.3484 171.538L25.3551 173.081L21.4262 173.098C20.9887 173.1 20.6468 173.215 20.4006 173.443C20.1545 173.669 20.0322 173.98 20.034 174.378C20.0351 174.648 20.0958 174.888 20.216 175.097C20.3334 175.304 20.5032 175.467 20.7253 175.585C20.9474 175.701 21.2161 175.758 21.5314 175.756ZM18.7821 166.73L19.9753 166.725L19.9915 170.488L18.7984 170.493L18.7821 166.73ZM17.2262 169.571L17.2195 168.028L23.3643 168.001C23.5717 168 23.7307 167.968 23.8412 167.905C23.9489 167.84 24.0224 167.754 24.0617 167.649C24.101 167.544 24.1204 167.427 24.1198 167.299C24.1194 167.203 24.1119 167.115 24.0974 167.035C24.0828 166.953 24.0698 166.89 24.0582 166.848L25.263 166.583C25.2918 166.665 25.3236 166.783 25.3583 166.936C25.3931 167.086 25.4137 167.271 25.4204 167.49C25.4334 167.876 25.3767 168.224 25.2502 168.534C25.1208 168.845 24.9202 169.091 24.6483 169.274C24.3763 169.454 24.0358 169.544 23.6267 169.543L17.2262 169.571ZM25.4245 159.579C25.4272 160.219 25.289 160.773 25.0098 161.243C24.7306 161.713 24.3387 162.078 23.8341 162.339C23.3296 162.597 22.7392 162.727 22.0631 162.73C21.387 162.733 20.7941 162.608 20.2845 162.354C19.7748 162.098 19.3784 161.736 19.0951 161.269C18.8118 160.801 18.6688 160.248 18.666 159.609C18.6633 158.969 18.8015 158.415 19.0807 157.945C19.3599 157.475 19.7532 157.111 20.2606 156.853C20.768 156.592 21.3598 156.461 22.0359 156.458C22.7121 156.455 23.3035 156.581 23.8103 156.838C24.3171 157.091 24.7121 157.452 24.9954 157.919C25.2787 158.387 25.4217 158.94 25.4245 159.579ZM24.1887 159.576C24.1872 159.23 24.0907 158.94 23.8994 158.708C23.7052 158.476 23.4459 158.304 23.1216 158.192C22.7972 158.076 22.4362 158.02 22.0384 158.022C21.6379 158.023 21.2759 158.083 20.9526 158.201C20.6264 158.316 20.3672 158.49 20.175 158.724C19.9828 158.958 19.8875 159.248 19.889 159.595C19.8905 159.95 19.9884 160.245 20.1826 160.48C20.3768 160.712 20.6375 160.886 20.9647 161.001C21.289 161.113 21.6515 161.168 22.0521 161.166C22.4498 161.165 22.8103 161.106 23.1337 160.991C23.4571 160.873 23.7148 160.698 23.907 160.464C24.0963 160.227 24.1902 159.931 24.1887 159.576ZM18.7176 151.847L19.9108 151.842L19.9276 155.711L18.7344 155.717L18.7176 151.847ZM25.2756 154.721L18.1123 154.752C17.672 154.754 17.3051 154.664 17.0117 154.484C16.7183 154.301 16.4985 154.054 16.3523 153.745C16.206 153.436 16.1321 153.093 16.1305 152.715C16.1293 152.448 16.1496 152.211 16.1913 152.003C16.233 151.796 16.2707 151.642 16.3044 151.542L17.4989 151.844C17.4793 151.909 17.4597 151.992 17.4403 152.091C17.418 152.191 17.4071 152.302 17.4076 152.424C17.4089 152.711 17.4794 152.914 17.6191 153.032C17.7559 153.148 17.9522 153.206 18.2079 153.205L25.2689 153.174L25.2756 154.721ZM16.5174 147.604L16.5091 145.669L22.8217 143.051L22.8212 142.949L16.4862 140.385L16.4778 138.451L25.205 138.413L25.2116 139.93L19.2159 139.956L19.2162 140.037L25.1968 142.423L25.2017 143.556L19.2292 145.994L19.2296 146.075L25.2381 146.049L25.2446 147.566L16.5174 147.604ZM25.3133 133.904C25.3161 134.543 25.1779 135.098 24.8986 135.568C24.6194 136.037 24.2275 136.403 23.723 136.664C23.2184 136.921 22.6281 137.052 21.9519 137.055C21.2758 137.058 20.6829 136.932 20.1733 136.679C19.6637 136.423 19.2672 136.061 18.9839 135.593C18.7007 135.126 18.5576 134.572 18.5549 133.933C18.5521 133.294 18.6903 132.739 18.9695 132.269C19.2488 131.799 19.6421 131.435 20.1495 131.178C20.6569 130.917 21.2486 130.785 21.9248 130.782C22.6009 130.779 23.1924 130.906 23.6992 131.162C24.206 131.416 24.601 131.776 24.8843 132.244C25.1675 132.711 25.3106 133.265 25.3133 133.904ZM24.0775 133.901C24.076 133.554 23.9796 133.265 23.7882 133.033C23.594 132.8 23.3348 132.628 23.0104 132.516C22.6861 132.401 22.325 132.344 21.9273 132.346C21.5267 132.348 21.1648 132.408 20.8414 132.525C20.5152 132.64 20.256 132.815 20.0638 133.049C19.8717 133.282 19.7763 133.573 19.7778 133.919C19.7794 134.274 19.8772 134.569 20.0714 134.804C20.2656 135.036 20.5263 135.21 20.8535 135.325C21.1779 135.437 21.5403 135.493 21.9409 135.491C22.3386 135.489 22.6992 135.431 23.0225 135.316C23.3459 135.198 23.6037 135.022 23.7958 134.788C23.9852 134.552 24.079 134.256 24.0775 133.901ZM21.3244 127.933L25.1596 127.916L25.1662 129.459L18.6208 129.487L18.6145 128.013L19.7267 128.008L19.7263 127.931C19.3592 127.782 19.067 127.543 18.8496 127.215C18.6323 126.883 18.5226 126.473 18.5205 125.985C18.5185 125.533 18.6134 125.139 18.8051 124.803C18.9968 124.464 19.2755 124.201 19.6412 124.015C20.0069 123.826 20.4511 123.732 20.9738 123.732L25.1414 123.714L25.148 125.257L21.2191 125.274C20.7816 125.276 20.4398 125.391 20.1936 125.619C19.9474 125.845 19.8252 126.157 19.8269 126.554C19.8281 126.824 19.8888 127.064 20.009 127.274C20.1264 127.481 20.2961 127.643 20.5182 127.761C20.7403 127.877 21.009 127.934 21.3244 127.933ZM25.2499 119.248C25.2527 119.904 25.1188 120.472 24.8481 120.95C24.5746 121.426 24.187 121.792 23.6853 122.05C23.1807 122.308 22.5861 122.439 21.9015 122.442C21.2282 122.444 20.6367 122.319 20.1271 122.066C19.6146 121.809 19.2153 121.45 18.9292 120.988C18.6403 120.527 18.4945 119.983 18.4918 119.358C18.49 118.955 18.5537 118.574 18.6828 118.215C18.8091 117.854 19.0066 117.535 19.2753 117.258C19.544 116.979 19.8868 116.758 20.3037 116.598C20.7178 116.437 21.2117 116.355 21.7856 116.352L22.2586 116.35L22.2818 121.715L21.2421 121.72L21.2252 117.834C20.9298 117.838 20.6673 117.903 20.4377 118.029C20.2053 118.155 20.0228 118.33 19.8903 118.555C19.7577 118.777 19.6921 119.036 19.6934 119.332C19.6947 119.647 19.7726 119.924 19.9271 120.162C20.0787 120.4 20.2783 120.585 20.5261 120.717C20.771 120.847 21.0397 120.913 21.3323 120.914L22.24 120.91C22.6207 120.909 22.9471 120.838 23.2192 120.697C23.4885 120.557 23.695 120.361 23.8388 120.111C23.9798 119.86 24.0495 119.567 24.0481 119.232C24.0471 119.007 24.015 118.804 23.9517 118.623C23.8856 118.441 23.7897 118.284 23.6641 118.151C23.5386 118.018 23.3833 117.918 23.1984 117.851L23.354 116.41C23.7351 116.499 24.0683 116.671 24.3534 116.925C24.6358 117.177 24.8559 117.5 25.0139 117.894C25.169 118.288 25.2477 118.74 25.2499 119.248ZM27.555 114.251C27.5559 114.461 27.5397 114.656 27.5064 114.835C27.4759 115.011 27.4395 115.152 27.3974 115.258L26.1941 114.905C26.2585 114.68 26.2889 114.48 26.2853 114.304C26.2817 114.127 26.2256 113.973 26.1171 113.84C26.0114 113.704 25.8348 113.59 25.5872 113.497L25.2329 113.366L18.5615 115.769L18.5544 114.132L23.491 112.603L23.4907 112.534L18.541 111.043L18.5339 109.402L25.8832 111.991C26.2304 112.112 26.5279 112.273 26.776 112.473C27.0268 112.674 27.2182 112.92 27.3502 113.212C27.485 113.501 27.5532 113.848 27.555 114.251Z" fill="#000938"/>
<path d="M226.354 237.354C226.549 237.158 226.549 236.842 226.354 236.646L223.172 233.464C222.976 233.269 222.66 233.269 222.464 233.464C222.269 233.66 222.269 233.976 222.464 234.172L225.293 237L222.464 239.828C222.269 240.024 222.269 240.34 222.464 240.536C222.66 240.731 222.976 240.731 223.172 240.536L226.354 237.354ZM100 237.5H226V236.5H100V237.5Z" fill="#A6A9FF"/>
<path d="M23.359 32.6519C23.1667 32.4537 22.8502 32.4488 22.6519 32.641L19.4214 35.7737C19.2231 35.9659 19.2183 36.2825 19.4105 36.4807C19.6027 36.679 19.9193 36.6838 20.1175 36.4916L22.9891 33.707L25.7737 36.5786C25.9659 36.7769 26.2825 36.7817 26.4807 36.5895C26.679 36.3973 26.6838 36.0807 26.4916 35.8825L23.359 32.6519ZM22.4999 98.0037L23.4999 33.0077L22.5001 32.9923L21.5001 97.9883L22.4999 98.0037Z" fill="#A6A9FF"/>
<ellipse cx="87" cy="166" rx="22" ry="21" fill="#DEC5FF" fill-opacity="0.73"/>
<ellipse cx="139" cy="152" rx="22" ry="21" fill="#CEA9FF" fill-opacity="0.73"/>
<ellipse cx="183" cy="121" rx="22" ry="21" fill="#B278FF" fill-opacity="0.73"/>
<ellipse cx="215" cy="77" rx="22" ry="21" fill="#9646FF" fill-opacity="0.79"/>
<path d="M77.1367 164.199C77.1003 163.858 76.9466 163.592 76.6758 163.402C76.4076 163.212 76.0586 163.117 75.6289 163.117C75.3268 163.117 75.0677 163.163 74.8516 163.254C74.6354 163.345 74.4701 163.469 74.3555 163.625C74.2409 163.781 74.1823 163.96 74.1797 164.16C74.1797 164.327 74.2174 164.471 74.293 164.594C74.3711 164.716 74.4766 164.82 74.6094 164.906C74.7422 164.99 74.8893 165.06 75.0508 165.117C75.2122 165.174 75.375 165.223 75.5391 165.262L76.2891 165.449C76.5911 165.52 76.8815 165.615 77.1602 165.734C77.4414 165.854 77.6927 166.005 77.9141 166.188C78.138 166.37 78.3151 166.59 78.4453 166.848C78.5755 167.105 78.6406 167.408 78.6406 167.754C78.6406 168.223 78.5208 168.635 78.2813 168.992C78.0417 169.346 77.6953 169.624 77.2422 169.824C76.7917 170.022 76.2461 170.121 75.6055 170.121C74.9831 170.121 74.4427 170.025 73.9844 169.832C73.5286 169.639 73.1719 169.358 72.9141 168.988C72.6589 168.618 72.5208 168.168 72.5 167.637H73.9258C73.9466 167.915 74.0326 168.147 74.1836 168.332C74.3346 168.517 74.5313 168.655 74.7734 168.746C75.0182 168.837 75.2917 168.883 75.5938 168.883C75.9089 168.883 76.1849 168.836 76.4219 168.742C76.6615 168.646 76.849 168.513 76.9844 168.344C77.1198 168.172 77.1888 167.971 77.1914 167.742C77.1888 167.534 77.1276 167.362 77.0078 167.227C76.888 167.089 76.7201 166.974 76.5039 166.883C76.2904 166.789 76.0404 166.706 75.7539 166.633L74.8438 166.398C74.1849 166.229 73.6641 165.973 73.2813 165.629C72.901 165.283 72.7109 164.823 72.7109 164.25C72.7109 163.779 72.8385 163.366 73.0938 163.012C73.3516 162.658 73.7018 162.383 74.1445 162.187C74.5872 161.99 75.0885 161.891 75.6484 161.891C76.2161 161.891 76.7135 161.99 77.1406 162.187C77.5703 162.383 77.9076 162.655 78.1523 163.004C78.3971 163.35 78.5234 163.749 78.5312 164.199H77.1367ZM82.5264 170.117C81.9248 170.117 81.4053 169.992 80.9678 169.742C80.5329 169.49 80.1982 169.133 79.9639 168.672C79.7295 168.208 79.6123 167.663 79.6123 167.035C79.6123 166.418 79.7295 165.876 79.9639 165.41C80.2008 164.941 80.5316 164.577 80.9561 164.316C81.3805 164.053 81.8792 163.922 82.4521 163.922C82.8219 163.922 83.1709 163.982 83.499 164.102C83.8298 164.219 84.1214 164.401 84.374 164.648C84.6292 164.896 84.8298 165.211 84.9756 165.594C85.1214 165.974 85.1943 166.427 85.1943 166.953V167.387H80.2764V166.434H83.8389C83.8363 166.163 83.7777 165.922 83.6631 165.711C83.5485 165.497 83.3883 165.329 83.1826 165.207C82.9795 165.085 82.7425 165.023 82.4717 165.023C82.1826 165.023 81.9287 165.094 81.71 165.234C81.4912 165.372 81.3206 165.555 81.1982 165.781C81.0785 166.005 81.0173 166.251 81.0146 166.52V167.352C81.0146 167.701 81.0785 168 81.2061 168.25C81.3337 168.497 81.512 168.687 81.7412 168.82C81.9704 168.951 82.2386 169.016 82.5459 169.016C82.7516 169.016 82.9378 168.987 83.1045 168.93C83.2712 168.87 83.4157 168.783 83.5381 168.668C83.6605 168.553 83.7529 168.411 83.8154 168.242L85.1357 168.391C85.0524 168.74 84.8936 169.044 84.6592 169.305C84.4274 169.562 84.1305 169.763 83.7686 169.906C83.4066 170.047 82.9925 170.117 82.5264 170.117ZM89.0469 170.117C88.4453 170.117 87.9258 169.992 87.4883 169.742C87.0534 169.49 86.7188 169.133 86.4844 168.672C86.25 168.208 86.1328 167.663 86.1328 167.035C86.1328 166.418 86.25 165.876 86.4844 165.41C86.7214 164.941 87.0521 164.577 87.4766 164.316C87.901 164.053 88.3997 163.922 88.9727 163.922C89.3424 163.922 89.6914 163.982 90.0195 164.102C90.3503 164.219 90.6419 164.401 90.8945 164.648C91.1497 164.896 91.3503 165.211 91.4961 165.594C91.6419 165.974 91.7148 166.427 91.7148 166.953V167.387H86.7969V166.434H90.3594C90.3568 166.163 90.2982 165.922 90.1836 165.711C90.069 165.497 89.9089 165.329 89.7031 165.207C89.5 165.085 89.263 165.023 88.9922 165.023C88.7031 165.023 88.4492 165.094 88.2305 165.234C88.0117 165.372 87.8411 165.555 87.7188 165.781C87.599 166.005 87.5378 166.251 87.5352 166.52V167.352C87.5352 167.701 87.599 168 87.7266 168.25C87.8542 168.497 88.0326 168.687 88.2617 168.82C88.4909 168.951 88.7591 169.016 89.0664 169.016C89.2721 169.016 89.4583 168.987 89.625 168.93C89.7917 168.87 89.9362 168.783 90.0586 168.668C90.181 168.553 90.2734 168.411 90.3359 168.242L91.6562 168.391C91.5729 168.74 91.4141 169.044 91.1797 169.305C90.9479 169.562 90.651 169.763 90.2891 169.906C89.9271 170.047 89.513 170.117 89.0469 170.117ZM95.1377 170.105C94.6663 170.105 94.2445 169.984 93.8721 169.742C93.4997 169.5 93.2054 169.148 92.9893 168.687C92.7731 168.227 92.665 167.667 92.665 167.008C92.665 166.341 92.7744 165.779 92.9932 165.32C93.2145 164.859 93.5127 164.512 93.8877 164.277C94.2627 164.04 94.6807 163.922 95.1416 163.922C95.4932 163.922 95.7822 163.982 96.0088 164.102C96.2354 164.219 96.415 164.361 96.5479 164.527C96.6807 164.691 96.7835 164.846 96.8564 164.992H96.915V162H98.333V170H96.9424V169.055H96.8564C96.7835 169.201 96.6781 169.355 96.54 169.52C96.402 169.681 96.2197 169.819 95.9932 169.934C95.7666 170.048 95.4814 170.105 95.1377 170.105ZM95.5322 168.945C95.8317 168.945 96.0869 168.865 96.2979 168.703C96.5088 168.539 96.6689 168.311 96.7783 168.02C96.8877 167.728 96.9424 167.388 96.9424 167C96.9424 166.612 96.8877 166.275 96.7783 165.988C96.6715 165.702 96.5127 165.479 96.3018 165.32C96.0934 165.161 95.8369 165.082 95.5322 165.082C95.2171 165.082 94.9541 165.164 94.7432 165.328C94.5322 165.492 94.3734 165.719 94.2666 166.008C94.1598 166.297 94.1064 166.628 94.1064 167C94.1064 167.375 94.1598 167.71 94.2666 168.004C94.376 168.296 94.5361 168.526 94.7471 168.695C94.9606 168.862 95.2223 168.945 95.5322 168.945Z" fill="white"/>
<path d="M136.816 156H135.27L138.086 148H139.875L142.695 156H141.148L139.012 149.641H138.949L136.816 156ZM136.867 152.863H141.086V154.027H136.867V152.863Z" fill="white"/>
<path d="M180.789 125V117H183.852C184.43 117 184.91 117.091 185.293 117.273C185.678 117.453 185.966 117.699 186.156 118.012C186.349 118.324 186.445 118.678 186.445 119.074C186.445 119.4 186.383 119.678 186.258 119.91C186.133 120.139 185.965 120.326 185.754 120.469C185.543 120.612 185.307 120.715 185.047 120.777V120.855C185.331 120.871 185.603 120.958 185.863 121.117C186.126 121.273 186.341 121.495 186.508 121.781C186.674 122.068 186.758 122.414 186.758 122.82C186.758 123.234 186.658 123.607 186.457 123.937C186.257 124.266 185.954 124.525 185.551 124.715C185.147 124.905 184.639 125 184.027 125H180.789ZM182.238 123.789H183.797C184.323 123.789 184.702 123.689 184.934 123.488C185.168 123.285 185.285 123.025 185.285 122.707C185.285 122.47 185.227 122.257 185.109 122.066C184.992 121.874 184.826 121.723 184.609 121.613C184.393 121.501 184.135 121.445 183.836 121.445H182.238V123.789ZM182.238 120.402H183.672C183.922 120.402 184.147 120.357 184.348 120.266C184.548 120.172 184.706 120.04 184.82 119.871C184.938 119.699 184.996 119.496 184.996 119.262C184.996 118.952 184.887 118.697 184.668 118.496C184.452 118.296 184.13 118.195 183.703 118.195H182.238V120.402Z" fill="white"/>
<path d="M218.637 75.6992H217.176C217.134 75.4596 217.057 75.2474 216.945 75.0625C216.833 74.875 216.694 74.7161 216.527 74.5859C216.361 74.4557 216.171 74.3581 215.957 74.293C215.746 74.2253 215.518 74.1914 215.273 74.1914C214.839 74.1914 214.453 74.3008 214.117 74.5195C213.781 74.7357 213.518 75.0534 213.328 75.4727C213.138 75.8893 213.043 76.3984 213.043 77C213.043 77.612 213.138 78.1276 213.328 78.5469C213.521 78.9635 213.784 79.2786 214.117 79.4922C214.453 79.7031 214.837 79.8086 215.27 79.8086C215.509 79.8086 215.733 79.7773 215.941 79.7148C216.152 79.6497 216.341 79.5547 216.508 79.4297C216.677 79.3047 216.819 79.151 216.934 78.9687C217.051 78.7865 217.132 78.5781 217.176 78.3437L218.637 78.3516C218.582 78.7318 218.464 79.0885 218.281 79.4219C218.102 79.7552 217.866 80.0495 217.574 80.3047C217.283 80.5573 216.941 80.7552 216.551 80.8984C216.16 81.0391 215.727 81.1094 215.25 81.1094C214.547 81.1094 213.919 80.9466 213.367 80.6211C212.815 80.2956 212.38 79.8255 212.063 79.2109C211.745 78.5964 211.586 77.8594 211.586 77C211.586 76.138 211.746 75.401 212.066 74.7891C212.387 74.1745 212.823 73.7044 213.375 73.3789C213.927 73.0534 214.552 72.8906 215.25 72.8906C215.695 72.8906 216.109 72.9531 216.492 73.0781C216.875 73.2031 217.216 73.3867 217.516 73.6289C217.815 73.8685 218.061 74.1628 218.254 74.5117C218.449 74.8581 218.577 75.2539 218.637 75.6992Z" fill="white"/>
</svg>
